<svg width="43" height="42" viewBox="0 0 43 42" fill="none" xmlns="http://www.w3.org/2000/svg">
<path d="M21.5 0C17.3466 0 13.2865 1.23163 9.83303 3.53914C6.3796 5.84665 3.68798 9.1264 2.09854 12.9636C0.509099 16.8009 0.093229 21.0233 0.903518 25.0969C1.71381 29.1705 3.71386 32.9123 6.65077 35.8492C9.58767 38.7861 13.3295 40.7862 17.4031 41.5965C21.4767 42.4068 25.6991 41.9909 29.5364 40.4015C33.3736 38.812 36.6534 36.1204 38.9609 32.667C41.2684 29.2135 42.5 25.1534 42.5 21C42.4941 15.4323 40.2797 10.0942 36.3427 6.15725C32.4058 2.22026 27.0677 0.00587963 21.5 0ZM23.1154 38.6945V25.8461H27.9615C28.39 25.8461 28.8008 25.676 29.1038 25.373C29.4067 25.0701 29.5769 24.6592 29.5769 24.2308C29.5769 23.8023 29.4067 23.3915 29.1038 23.0885C28.8008 22.7856 28.39 22.6154 27.9615 22.6154H23.1154V17.7692C23.1154 16.9124 23.4558 16.0906 24.0617 15.4847C24.6675 14.8788 25.4893 14.5385 26.3462 14.5385H29.5769C30.0054 14.5385 30.4162 14.3683 30.7192 14.0653C31.0221 13.7624 31.1923 13.3515 31.1923 12.9231C31.1923 12.4946 31.0221 12.0838 30.7192 11.7808C30.4162 11.4779 30.0054 11.3077 29.5769 11.3077H26.3462C24.6325 11.3077 22.9889 11.9885 21.7772 13.2002C20.5654 14.412 19.8846 16.0555 19.8846 17.7692V22.6154H15.0385C14.61 22.6154 14.1992 22.7856 13.8962 23.0885C13.5933 23.3915 13.4231 23.8023 13.4231 24.2308C13.4231 24.6592 13.5933 25.0701 13.8962 25.373C14.1992 25.676 14.61 25.8461 15.0385 25.8461H19.8846V38.6945C15.3308 38.2788 11.1126 36.1236 8.10733 32.6771C5.10206 29.2307 3.54112 24.7583 3.74918 20.1903C3.95725 15.6224 5.91831 11.3104 9.22445 8.15144C12.5306 4.99247 16.9273 3.22964 21.5 3.22964C26.0727 3.22964 30.4694 4.99247 33.7756 8.15144C37.0817 11.3104 39.0428 15.6224 39.2508 20.1903C39.4589 24.7583 37.8979 29.2307 34.8927 32.6771C31.8874 36.1236 27.6692 38.2788 23.1154 38.6945Z" fill="white"/>
</svg>
