<svg width="43" height="42" viewBox="0 0 43 42" fill="none" xmlns="http://www.w3.org/2000/svg">
<path d="M21.5 11.3077C19.583 11.3077 17.7091 11.8761 16.1152 12.9411C14.5213 14.0061 13.2791 15.5199 12.5455 17.2909C11.8119 19.062 11.6199 21.0108 11.9939 22.8909C12.3679 24.771 13.291 26.498 14.6465 27.8535C16.002 29.209 17.729 30.1321 19.6091 30.5061C21.4892 30.8801 23.438 30.6881 25.2091 29.9545C26.9801 29.2209 28.4939 27.9786 29.5589 26.3848C30.6239 24.7909 31.1923 22.917 31.1923 21C31.1896 18.4303 30.1676 15.9665 28.3505 14.1495C26.5335 12.3324 24.0697 11.3104 21.5 11.3077ZM21.5 27.4615C20.222 27.4615 18.9728 27.0826 17.9102 26.3726C16.8476 25.6626 16.0194 24.6534 15.5303 23.4727C15.0413 22.292 14.9133 20.9928 15.1626 19.7394C15.4119 18.486 16.0273 17.3347 16.931 16.431C17.8347 15.5273 18.986 14.9119 20.2394 14.6626C21.4928 14.4133 22.792 14.5413 23.9727 15.0303C25.1534 15.5194 26.1626 16.3476 26.8726 17.4102C27.5826 18.4728 27.9615 19.722 27.9615 21C27.9615 22.7137 27.2808 24.3572 26.069 25.569C24.8572 26.7808 23.2137 27.4615 21.5 27.4615ZM31.1923 0H11.8077C8.80969 0.00320699 5.9354 1.19558 3.81549 3.31549C1.69558 5.4354 0.503207 8.30969 0.5 11.3077V30.6923C0.503207 33.6903 1.69558 36.5646 3.81549 38.6845C5.9354 40.8044 8.80969 41.9968 11.8077 42H31.1923C34.1903 41.9968 37.0646 40.8044 39.1845 38.6845C41.3044 36.5646 42.4968 33.6903 42.5 30.6923V11.3077C42.4968 8.30969 41.3044 5.4354 39.1845 3.31549C37.0646 1.19558 34.1903 0.00320699 31.1923 0ZM39.2692 30.6923C39.2692 32.8344 38.4183 34.8888 36.9036 36.4036C35.3888 37.9183 33.3344 38.7692 31.1923 38.7692H11.8077C9.66556 38.7692 7.61116 37.9183 6.09645 36.4036C4.58173 34.8888 3.73077 32.8344 3.73077 30.6923V11.3077C3.73077 9.16556 4.58173 7.11116 6.09645 5.59645C7.61116 4.08173 9.66556 3.23077 11.8077 3.23077H31.1923C33.3344 3.23077 35.3888 4.08173 36.9036 5.59645C38.4183 7.11116 39.2692 9.16556 39.2692 11.3077V30.6923ZM34.4231 10.5C34.4231 10.9792 34.281 11.4477 34.0147 11.8462C33.7485 12.2447 33.37 12.5552 32.9273 12.7386C32.4845 12.922 31.9973 12.97 31.5273 12.8765C31.0573 12.783 30.6255 12.5522 30.2866 12.2134C29.9478 11.8745 29.717 11.4427 29.6235 10.9727C29.53 10.5027 29.578 10.0155 29.7614 9.57273C29.9448 9.12997 30.2553 8.75154 30.6538 8.48528C31.0523 8.21903 31.5208 8.07692 32 8.07692C32.6426 8.07692 33.259 8.33221 33.7134 8.78662C34.1678 9.24104 34.4231 9.85736 34.4231 10.5Z" fill="white"/>
</svg>
