<svg width="40" height="40" viewBox="0 0 40 40" fill="none" xmlns="http://www.w3.org/2000/svg">
<path d="M36.5 0.5H3.5C2.70435 0.5 1.94129 0.81607 1.37868 1.37868C0.81607 1.94129 0.5 2.70435 0.5 3.5V36.5C0.5 37.2957 0.81607 38.0587 1.37868 38.6213C1.94129 39.1839 2.70435 39.5 3.5 39.5H36.5C37.2957 39.5 38.0587 39.1839 38.6213 38.6213C39.1839 38.0587 39.5 37.2957 39.5 36.5V3.5C39.5 2.70435 39.1839 1.94129 38.6213 1.37868C38.0587 0.81607 37.2957 0.5 36.5 0.5ZM36.5 36.5H3.5V3.5H36.5V36.5ZM14 17V29C14 29.3978 13.842 29.7794 13.5607 30.0607C13.2794 30.342 12.8978 30.5 12.5 30.5C12.1022 30.5 11.7206 30.342 11.4393 30.0607C11.158 29.7794 11 29.3978 11 29V17C11 16.6022 11.158 16.2206 11.4393 15.9393C11.7206 15.658 12.1022 15.5 12.5 15.5C12.8978 15.5 13.2794 15.658 13.5607 15.9393C13.842 16.2206 14 16.6022 14 17ZM30.5 22.25V29C30.5 29.3978 30.342 29.7794 30.0607 30.0607C29.7794 30.342 29.3978 30.5 29 30.5C28.6022 30.5 28.2206 30.342 27.9393 30.0607C27.658 29.7794 27.5 29.3978 27.5 29V22.25C27.5 21.2554 27.1049 20.3016 26.4016 19.5984C25.6984 18.8951 24.7446 18.5 23.75 18.5C22.7554 18.5 21.8016 18.8951 21.0984 19.5984C20.3951 20.3016 20 21.2554 20 22.25V29C20 29.3978 19.842 29.7794 19.5607 30.0607C19.2794 30.342 18.8978 30.5 18.5 30.5C18.1022 30.5 17.7206 30.342 17.4393 30.0607C17.158 29.7794 17 29.3978 17 29V17C17.0019 16.6326 17.1385 16.2786 17.384 16.0053C17.6295 15.7319 17.9668 15.5582 18.332 15.517C18.6971 15.4759 19.0646 15.5702 19.3648 15.782C19.665 15.9938 19.877 16.3085 19.9606 16.6663C20.9753 15.9779 22.1584 15.5789 23.3828 15.5122C24.6071 15.4455 25.8265 15.7136 26.91 16.2876C27.9936 16.8617 28.9002 17.72 29.5327 18.7705C30.1652 19.8209 30.4996 21.0238 30.5 22.25ZM14.75 11.75C14.75 12.195 14.618 12.63 14.3708 13C14.1236 13.37 13.7722 13.6584 13.361 13.8287C12.9499 13.999 12.4975 14.0436 12.061 13.9568C11.6246 13.87 11.2237 13.6557 10.909 13.341C10.5943 13.0263 10.38 12.6254 10.2932 12.189C10.2064 11.7525 10.251 11.3001 10.4213 10.889C10.5916 10.4778 10.88 10.1264 11.25 9.87919C11.62 9.63196 12.055 9.5 12.5 9.5C13.0967 9.5 13.669 9.73705 14.091 10.159C14.5129 10.581 14.75 11.1533 14.75 11.75Z" fill="white"/>
</svg>
