<svg width="144" height="38" viewBox="0 0 144 38" fill="none" xmlns="http://www.w3.org/2000/svg">
<path d="M14.76 30L13.608 25.232H7.144L6.024 30H0.584L7.272 7.824H13.64L20.328 30H14.76ZM8.04 21.424H12.712L10.376 11.632L8.04 21.424ZM26.371 30.544C24.899 30.544 23.747 30.128 22.915 29.296C22.1043 28.4427 21.699 27.2373 21.699 25.68V6.256L26.755 5.712V25.488C26.755 26.192 27.043 26.544 27.619 26.544C27.9177 26.544 28.195 26.4907 28.451 26.384L29.443 29.968C28.5257 30.352 27.5017 30.544 26.371 30.544ZM36.415 5.712V30H31.359V6.256L36.415 5.712ZM46.911 13.008L41.759 20.464L47.327 30H41.631L36.575 20.72L41.759 13.008H46.911ZM62.0505 25.072C62.0505 25.712 62.1358 26.1813 62.3065 26.48C62.4985 26.7787 62.7972 27.0027 63.2025 27.152L62.1465 30.448C61.1012 30.3627 60.2478 30.1387 59.5865 29.776C58.9252 29.392 58.4132 28.7947 58.0505 27.984C56.9412 29.6907 55.2345 30.544 52.9305 30.544C51.2452 30.544 49.9012 30.0533 48.8985 29.072C47.8958 28.0907 47.3945 26.8107 47.3945 25.232C47.3945 23.376 48.0772 21.9573 49.4425 20.976C50.8078 19.9947 52.7812 19.504 55.3625 19.504H57.0905V18.768C57.0905 17.7653 56.8772 17.0827 56.4505 16.72C56.0238 16.336 55.2772 16.144 54.2105 16.144C53.6558 16.144 52.9838 16.2293 52.1945 16.4C51.4052 16.5493 50.5945 16.7627 49.7625 17.04L48.6105 13.712C49.6772 13.3067 50.7652 12.9973 51.8745 12.784C53.0052 12.5707 54.0505 12.464 55.0105 12.464C57.4425 12.464 59.2238 12.9653 60.3545 13.968C61.4852 14.9707 62.0505 16.4747 62.0505 18.48V25.072ZM54.4025 26.928C55.5545 26.928 56.4505 26.384 57.0905 25.296V22.288H55.8425C54.6905 22.288 53.8265 22.4907 53.2505 22.896C52.6958 23.3013 52.4185 23.9307 52.4185 24.784C52.4185 25.4667 52.5892 26 52.9305 26.384C53.2932 26.7467 53.7838 26.928 54.4025 26.928ZM74.985 30.032C74.3023 32.2293 73.1823 33.9147 71.625 35.088C70.089 36.2827 68.0197 36.9547 65.417 37.104L64.873 33.552C66.4943 33.3387 67.689 32.976 68.457 32.464C69.2463 31.952 69.8757 31.1307 70.345 30H68.617L63.433 13.008H68.809L71.849 26.768L75.177 13.008H80.393L74.985 30.032ZM94.9568 25.072C94.9568 25.712 95.0421 26.1813 95.2128 26.48C95.4048 26.7787 95.7034 27.0027 96.1088 27.152L95.0528 30.448C94.0074 30.3627 93.1541 30.1387 92.4928 29.776C91.8314 29.392 91.3194 28.7947 90.9568 27.984C89.8474 29.6907 88.1408 30.544 85.8368 30.544C84.1514 30.544 82.8074 30.0533 81.8048 29.072C80.8021 28.0907 80.3008 26.8107 80.3008 25.232C80.3008 23.376 80.9834 21.9573 82.3488 20.976C83.7141 19.9947 85.6874 19.504 88.2688 19.504H89.9968V18.768C89.9968 17.7653 89.7834 17.0827 89.3568 16.72C88.9301 16.336 88.1834 16.144 87.1168 16.144C86.5621 16.144 85.8901 16.2293 85.1008 16.4C84.3114 16.5493 83.5008 16.7627 82.6688 17.04L81.5168 13.712C82.5834 13.3067 83.6714 12.9973 84.7808 12.784C85.9114 12.5707 86.9568 12.464 87.9167 12.464C90.3488 12.464 92.1301 12.9653 93.2608 13.968C94.3914 14.9707 94.9568 16.4747 94.9568 18.48V25.072ZM87.3088 26.928C88.4608 26.928 89.3568 26.384 89.9968 25.296V22.288H88.7488C87.5968 22.288 86.7328 22.4907 86.1568 22.896C85.6021 23.3013 85.3248 23.9307 85.3248 24.784C85.3248 25.4667 85.4954 26 85.8368 26.384C86.1994 26.7467 86.6901 26.928 87.3088 26.928ZM117.768 12.464C119.112 12.464 120.189 12.9227 121 13.84C121.811 14.736 122.216 15.984 122.216 17.584V30H117.16V18.448C117.16 16.9333 116.68 16.176 115.72 16.176C115.187 16.176 114.717 16.3573 114.312 16.72C113.907 17.0827 113.512 17.6373 113.128 18.384V30H108.072V18.448C108.072 16.9333 107.592 16.176 106.632 16.176C106.12 16.176 105.651 16.368 105.224 16.752C104.819 17.1147 104.424 17.6587 104.04 18.384V30H98.984V13.008H103.4L103.752 14.992C104.413 14.1387 105.139 13.5093 105.928 13.104C106.739 12.6773 107.656 12.464 108.68 12.464C109.64 12.464 110.461 12.6987 111.144 13.168C111.848 13.6373 112.36 14.2987 112.68 15.152C113.363 14.2347 114.109 13.5627 114.92 13.136C115.752 12.688 116.701 12.464 117.768 12.464ZM131.071 13.008V30H126.015V13.008H131.071ZM128.511 4.048C129.386 4.048 130.101 4.32533 130.655 4.88C131.231 5.41333 131.519 6.096 131.519 6.928C131.519 7.76 131.231 8.45333 130.655 9.008C130.101 9.54133 129.386 9.808 128.511 9.808C127.637 9.808 126.922 9.54133 126.367 9.008C125.813 8.45333 125.535 7.76 125.535 6.928C125.535 6.096 125.813 5.41333 126.367 4.88C126.922 4.32533 127.637 4.048 128.511 4.048Z" fill="white"/>
<path d="M142.682 0.0687215L134.561 3.81672C133.624 4.25402 133.937 5.62822 134.936 5.62822H138.372V9.06392C138.372 10.0633 139.746 10.3758 140.183 9.43872L143.931 1.31812C144.244 0.568325 143.432 -0.243775 142.682 0.0687215Z" fill="white"/>
</svg>
