<svg width="17" height="17" viewBox="0 0 17 17" fill="none" xmlns="http://www.w3.org/2000/svg">
<path d="M6.91278 8.80475L6.9917 8.31102L6.50078 8.21618L1.26815 7.20525C0.801959 7.11519 0.511557 6.7053 0.493364 6.1857C0.475286 5.66942 0.738268 5.19213 1.25505 5.03882C1.25538 5.03872 1.25571 5.03863 1.25603 5.03853L14.6143 1.15619C14.9679 1.07292 15.3226 1.24689 15.556 1.61284C15.7904 1.98036 15.8423 2.46188 15.616 2.85782L7.74045 15.3419C7.74032 15.3421 7.74018 15.3424 7.74004 15.3426C7.41303 15.8558 6.94091 15.9144 6.57704 15.7516C6.20289 15.5842 5.89678 15.1608 5.99325 14.5573L6.91278 8.80475Z" fill="black" stroke="black"/>
</svg>
