<svg width="37" height="40" viewBox="0 0 37 40" fill="none" xmlns="http://www.w3.org/2000/svg">
<path d="M36.2449 36.9806L23.4449 17.0098L36.0752 3.2161C36.3609 2.89643 36.5081 2.47786 36.485 2.05115C36.4618 1.62443 36.2702 1.22396 35.9517 0.936557C35.6331 0.649155 35.2133 0.497987 34.7832 0.515825C34.3532 0.533664 33.9475 0.719072 33.6542 1.03185L21.623 14.1698L13.3439 1.25312C13.1963 1.02242 12.9924 0.83245 12.7511 0.7008C12.5098 0.569151 12.239 0.500085 11.9637 0.5H2.14898C1.85568 0.499859 1.56775 0.578006 1.31531 0.72626C1.06288 0.874514 0.855245 1.08742 0.714142 1.34269C0.573038 1.59795 0.503661 1.88618 0.513274 2.1772C0.522887 2.46822 0.611137 2.75133 0.768782 2.99686L13.5688 22.9657L0.938496 36.7695C0.791002 36.9268 0.676422 37.1116 0.601396 37.3132C0.52637 37.5147 0.49239 37.7291 0.501426 37.9438C0.510462 38.1585 0.562335 38.3693 0.654037 38.564C0.745739 38.7587 0.875446 38.9333 1.03564 39.0779C1.19584 39.2224 1.38333 39.3339 1.58727 39.406C1.7912 39.478 2.00751 39.5092 2.22366 39.4977C2.43981 39.4861 2.65151 39.4321 2.84648 39.3387C3.04145 39.2454 3.21581 39.1145 3.35946 38.9537L15.3907 25.8158L23.6698 38.7325C23.8186 38.9613 24.0231 39.1493 24.2642 39.2791C24.5054 39.4089 24.7756 39.4764 25.05 39.4754H34.8647C35.1577 39.4753 35.4453 39.3971 35.6974 39.249C35.9495 39.1008 36.1569 38.8882 36.298 38.6332C36.439 38.3783 36.5085 38.0904 36.4992 37.7997C36.4898 37.509 36.402 37.2261 36.2449 36.9806ZM25.9476 36.2275L5.12815 3.74795H11.0579L31.8855 36.2275H25.9476Z" fill="white"/>
</svg>
